<?xml version="1.0" encoding="UTF-8" standalone="no"?>
<!DOCTYPE svg PUBLIC "-//W3C//DTD SVG 1.1//EN"
 "http://www.w3.org/Graphics/SVG/1.1/DTD/svg11.dtd">
<!-- Generated by graphviz version 2.47.0 (20210316.0004)
 -->
<!-- Title: dbml Pages: 1 -->
<svg width="2420pt" height="2399pt"
 viewBox="0.00 0.00 2419.75 2398.92" xmlns="http://www.w3.org/2000/svg" xmlns:xlink="http://www.w3.org/1999/xlink">
<g id="graph0" class="graph" transform="scale(1 1) rotate(0) translate(4 2394.92)">
<title>dbml</title>
<!-- Barn -->
<g id="Barn" class="node">
<title>Barn</title>
<ellipse fill="none" stroke="black" stroke-width="0" cx="1637.53" cy="-408.96" rx="219.41" ry="172.57"/>
<polygon fill="#1d71b8" stroke="transparent" points="1484.53,-468.96 1484.53,-528.96 1790.53,-528.96 1790.53,-468.96 1484.53,-468.96"/>
<polygon fill="none" stroke="#29235c" points="1484.53,-468.96 1484.53,-528.96 1790.53,-528.96 1790.53,-468.96 1484.53,-468.96"/>
<text text-anchor="start" x="1541.5" y="-490.16" font-family="Helvetica,sans-Serif" font-weight="bold" font-size="32.00" fill="#ffffff"> &#160;&#160;&#160;&#160;&#160;&#160;Barn &#160;&#160;&#160;&#160;&#160;&#160;</text>
<polygon fill="#e7e2dd" stroke="transparent" points="1484.53,-408.96 1484.53,-468.96 1790.53,-468.96 1790.53,-408.96 1484.53,-408.96"/>
<polygon fill="none" stroke="#29235c" points="1484.53,-408.96 1484.53,-468.96 1790.53,-468.96 1790.53,-408.96 1484.53,-408.96"/>
<text text-anchor="start" x="1495.53" y="-430.16" font-family="Helvetica,sans-Serif" font-weight="bold" font-size="32.00" fill="#29235c">id</text>
<text text-anchor="start" x="1520.42" y="-430.16" font-family="Helvetica,sans-Serif" font-size="32.00" fill="#29235c"> &#160;&#160;&#160;</text>
<text text-anchor="start" x="1637.32" y="-430.16" font-family="Helvetica,sans-Serif" font-style="italic" font-size="32.00" fill="#29235c">INTEGER</text>
<polygon fill="#e7e2dd" stroke="transparent" points="1484.53,-348.96 1484.53,-408.96 1790.53,-408.96 1790.53,-348.96 1484.53,-348.96"/>
<polygon fill="none" stroke="#29235c" points="1484.53,-348.96 1484.53,-408.96 1790.53,-408.96 1790.53,-348.96 1484.53,-348.96"/>
<text text-anchor="start" x="1495.53" y="-369.16" font-family="Helvetica,sans-Serif" font-size="32.00" fill="#29235c">name &#160;&#160;&#160;</text>
<text text-anchor="start" x="1623.11" y="-370.16" font-family="Helvetica,sans-Serif" font-style="italic" font-size="32.00" fill="#29235c">VARCHAR</text>
<polygon fill="#e7e2dd" stroke="transparent" points="1484.53,-288.96 1484.53,-348.96 1790.53,-348.96 1790.53,-288.96 1484.53,-288.96"/>
<polygon fill="none" stroke="#29235c" points="1484.53,-288.96 1484.53,-348.96 1790.53,-348.96 1790.53,-288.96 1484.53,-288.96"/>
<text text-anchor="start" x="1495.42" y="-309.16" font-family="Helvetica,sans-Serif" font-size="32.00" fill="#29235c">farm_id &#160;&#160;&#160;</text>
<text text-anchor="start" x="1637.43" y="-310.16" font-family="Helvetica,sans-Serif" font-style="italic" font-size="32.00" fill="#29235c">INTEGER</text>
<polygon fill="none" stroke="#29235c" stroke-width="2" points="1483.53,-287.96 1483.53,-529.96 1791.53,-529.96 1791.53,-287.96 1483.53,-287.96"/>
</g>
<!-- Farm -->
<g id="Farm" class="node">
<title>Farm</title>
<ellipse fill="none" stroke="black" stroke-width="0" cx="2180.53" cy="-535.96" rx="231.45" ry="172.57"/>
<polygon fill="#1d71b8" stroke="transparent" points="2019.53,-595.96 2019.53,-655.96 2342.53,-655.96 2342.53,-595.96 2019.53,-595.96"/>
<polygon fill="none" stroke="#29235c" points="2019.53,-595.96 2019.53,-655.96 2342.53,-655.96 2342.53,-595.96 2019.53,-595.96"/>
<text text-anchor="start" x="2081.46" y="-617.16" font-family="Helvetica,sans-Serif" font-weight="bold" font-size="32.00" fill="#ffffff"> &#160;&#160;&#160;&#160;&#160;&#160;Farm &#160;&#160;&#160;&#160;&#160;&#160;</text>
<polygon fill="#e7e2dd" stroke="transparent" points="2019.53,-535.96 2019.53,-595.96 2342.53,-595.96 2342.53,-535.96 2019.53,-535.96"/>
<polygon fill="none" stroke="#29235c" points="2019.53,-535.96 2019.53,-595.96 2342.53,-595.96 2342.53,-535.96 2019.53,-535.96"/>
<text text-anchor="start" x="2030.53" y="-557.16" font-family="Helvetica,sans-Serif" font-weight="bold" font-size="32.00" fill="#29235c">id</text>
<text text-anchor="start" x="2055.42" y="-557.16" font-family="Helvetica,sans-Serif" font-size="32.00" fill="#29235c"> &#160;&#160;&#160;</text>
<text text-anchor="start" x="2189.31" y="-557.16" font-family="Helvetica,sans-Serif" font-style="italic" font-size="32.00" fill="#29235c">INTEGER</text>
<polygon fill="#e7e2dd" stroke="transparent" points="2019.53,-475.96 2019.53,-535.96 2342.53,-535.96 2342.53,-475.96 2019.53,-475.96"/>
<polygon fill="none" stroke="#29235c" points="2019.53,-475.96 2019.53,-535.96 2342.53,-535.96 2342.53,-475.96 2019.53,-475.96"/>
<text text-anchor="start" x="2030.53" y="-496.16" font-family="Helvetica,sans-Serif" font-size="32.00" fill="#29235c">name &#160;&#160;&#160;</text>
<text text-anchor="start" x="2175.1" y="-497.16" font-family="Helvetica,sans-Serif" font-style="italic" font-size="32.00" fill="#29235c">VARCHAR</text>
<polygon fill="#e7e2dd" stroke="transparent" points="2019.53,-415.96 2019.53,-475.96 2342.53,-475.96 2342.53,-415.96 2019.53,-415.96"/>
<polygon fill="none" stroke="#29235c" points="2019.53,-415.96 2019.53,-475.96 2342.53,-475.96 2342.53,-415.96 2019.53,-415.96"/>
<text text-anchor="start" x="2030.12" y="-436.16" font-family="Helvetica,sans-Serif" font-size="32.00" fill="#29235c">location &#160;&#160;&#160;</text>
<text text-anchor="start" x="2175.32" y="-437.16" font-family="Helvetica,sans-Serif" font-style="italic" font-size="32.00" fill="#29235c">VARCHAR</text>
<polygon fill="none" stroke="#29235c" stroke-width="2" points="2018.03,-414.96 2018.03,-656.96 2343.03,-656.96 2343.03,-414.96 2018.03,-414.96"/>
</g>
<!-- Barn&#45;&gt;Farm -->
<!-- Barn&#45;&gt;Farm -->
<g id="edge2" class="edge">
<title>Barn:e&#45;&gt;Farm:w</title>
<path fill="none" stroke="#29235c" stroke-width="3" d="M1791.53,-318.96C1937.14,-318.96 1872.65,-554.52 2008.4,-565.56"/>
<polygon fill="#29235c" stroke="#29235c" stroke-width="3" points="2008.4,-569.06 2018.53,-565.96 2008.68,-562.07 2008.4,-569.06"/>
<text text-anchor="middle" x="2012.31" y="-537.16" font-family="Helvetica,sans-Serif" font-size="32.00" fill="#29235c">*</text>
<text text-anchor="middle" x="1782.64" y="-290.16" font-family="Helvetica,sans-Serif" font-size="32.00" fill="#29235c">1</text>
</g>
<!-- Cattle -->
<g id="Cattle" class="node">
<title>Cattle</title>
<ellipse fill="none" stroke="black" stroke-width="0" cx="1010.39" cy="-1212.96" rx="274.21" ry="172.57"/>
<polygon fill="#1d71b8" stroke="transparent" points="818.39,-1272.96 818.39,-1332.96 1202.39,-1332.96 1202.39,-1272.96 818.39,-1272.96"/>
<polygon fill="none" stroke="#29235c" points="818.39,-1272.96 818.39,-1332.96 1202.39,-1332.96 1202.39,-1272.96 818.39,-1272.96"/>
<text text-anchor="start" x="906.36" y="-1294.16" font-family="Helvetica,sans-Serif" font-weight="bold" font-size="32.00" fill="#ffffff"> &#160;&#160;&#160;&#160;&#160;&#160;Cattle &#160;&#160;&#160;&#160;&#160;&#160;</text>
<polygon fill="#e7e2dd" stroke="transparent" points="818.39,-1212.96 818.39,-1272.96 1202.39,-1272.96 1202.39,-1212.96 818.39,-1212.96"/>
<polygon fill="none" stroke="#29235c" points="818.39,-1212.96 818.39,-1272.96 1202.39,-1272.96 1202.39,-1212.96 818.39,-1212.96"/>
<text text-anchor="start" x="829.39" y="-1234.16" font-family="Helvetica,sans-Serif" font-weight="bold" font-size="32.00" fill="#29235c">id</text>
<text text-anchor="start" x="854.28" y="-1234.16" font-family="Helvetica,sans-Serif" font-size="32.00" fill="#29235c"> &#160;&#160;&#160;</text>
<text text-anchor="start" x="1049.18" y="-1234.16" font-family="Helvetica,sans-Serif" font-style="italic" font-size="32.00" fill="#29235c">INTEGER</text>
<polygon fill="#e7e2dd" stroke="transparent" points="818.39,-1152.96 818.39,-1212.96 1202.39,-1212.96 1202.39,-1152.96 818.39,-1152.96"/>
<polygon fill="none" stroke="#29235c" points="818.39,-1152.96 818.39,-1212.96 1202.39,-1212.96 1202.39,-1152.96 818.39,-1152.96"/>
<text text-anchor="start" x="829.25" y="-1173.16" font-family="Helvetica,sans-Serif" font-size="32.00" fill="#29235c">tag_number &#160;&#160;&#160;</text>
<text text-anchor="start" x="1035.18" y="-1174.16" font-family="Helvetica,sans-Serif" font-style="italic" font-size="32.00" fill="#29235c">VARCHAR</text>
<polygon fill="#e7e2dd" stroke="transparent" points="818.39,-1092.96 818.39,-1152.96 1202.39,-1152.96 1202.39,-1092.96 818.39,-1092.96"/>
<polygon fill="none" stroke="#29235c" points="818.39,-1092.96 818.39,-1152.96 1202.39,-1152.96 1202.39,-1092.96 818.39,-1092.96"/>
<text text-anchor="start" x="829.39" y="-1113.16" font-family="Helvetica,sans-Serif" font-size="32.00" fill="#29235c">birth_date &#160;&#160;&#160;</text>
<text text-anchor="start" x="1029.63" y="-1114.16" font-family="Helvetica,sans-Serif" font-style="italic" font-size="32.00" fill="#29235c">DATETIME</text>
<polygon fill="none" stroke="#29235c" stroke-width="2" points="817.39,-1091.96 817.39,-1333.96 1203.39,-1333.96 1203.39,-1091.96 817.39,-1091.96"/>
</g>
<!-- CattlePen -->
<g id="CattlePen" class="node">
<title>CattlePen</title>
<ellipse fill="none" stroke="black" stroke-width="0" cx="329.51" cy="-662.96" rx="329.52" ry="214.92"/>
<polygon fill="#1d71b8" stroke="transparent" points="98.51,-752.96 98.51,-812.96 560.51,-812.96 560.51,-752.96 98.51,-752.96"/>
<polygon fill="none" stroke="#29235c" points="98.51,-752.96 98.51,-812.96 560.51,-812.96 560.51,-752.96 98.51,-752.96"/>
<text text-anchor="start" x="197.02" y="-774.16" font-family="Helvetica,sans-Serif" font-weight="bold" font-size="32.00" fill="#ffffff"> &#160;&#160;&#160;&#160;&#160;&#160;CattlePen &#160;&#160;&#160;&#160;&#160;&#160;</text>
<polygon fill="#e7e2dd" stroke="transparent" points="98.51,-692.96 98.51,-752.96 560.51,-752.96 560.51,-692.96 98.51,-692.96"/>
<polygon fill="none" stroke="#29235c" points="98.51,-692.96 98.51,-752.96 560.51,-752.96 560.51,-692.96 98.51,-692.96"/>
<text text-anchor="start" x="109.51" y="-714.16" font-family="Helvetica,sans-Serif" font-weight="bold" font-size="32.00" fill="#29235c">id</text>
<text text-anchor="start" x="134.4" y="-714.16" font-family="Helvetica,sans-Serif" font-size="32.00" fill="#29235c"> &#160;&#160;&#160;</text>
<text text-anchor="start" x="407.29" y="-714.16" font-family="Helvetica,sans-Serif" font-style="italic" font-size="32.00" fill="#29235c">INTEGER</text>
<polygon fill="#e7e2dd" stroke="transparent" points="98.51,-632.96 98.51,-692.96 560.51,-692.96 560.51,-632.96 98.51,-632.96"/>
<polygon fill="none" stroke="#29235c" points="98.51,-632.96 98.51,-692.96 560.51,-692.96 560.51,-632.96 98.51,-632.96"/>
<text text-anchor="start" x="109.51" y="-653.16" font-family="Helvetica,sans-Serif" font-size="32.00" fill="#29235c">cattle_id &#160;&#160;&#160;</text>
<text text-anchor="start" x="407.29" y="-654.16" font-family="Helvetica,sans-Serif" font-style="italic" font-size="32.00" fill="#29235c">INTEGER</text>
<polygon fill="#e7e2dd" stroke="transparent" points="98.51,-572.96 98.51,-632.96 560.51,-632.96 560.51,-572.96 98.51,-572.96"/>
<polygon fill="none" stroke="#29235c" points="98.51,-572.96 98.51,-632.96 560.51,-632.96 560.51,-572.96 98.51,-572.96"/>
<text text-anchor="start" x="109.51" y="-593.16" font-family="Helvetica,sans-Serif" font-size="32.00" fill="#29235c">pen_id &#160;&#160;&#160;</text>
<text text-anchor="start" x="407.29" y="-594.16" font-family="Helvetica,sans-Serif" font-style="italic" font-size="32.00" fill="#29235c">INTEGER</text>
<polygon fill="#e7e2dd" stroke="transparent" points="98.51,-512.96 98.51,-572.96 560.51,-572.96 560.51,-512.96 98.51,-512.96"/>
<polygon fill="none" stroke="#29235c" points="98.51,-512.96 98.51,-572.96 560.51,-572.96 560.51,-512.96 98.51,-512.96"/>
<text text-anchor="start" x="109.41" y="-533.16" font-family="Helvetica,sans-Serif" font-size="32.00" fill="#29235c">assignment_date &#160;&#160;&#160;</text>
<text text-anchor="start" x="388.13" y="-534.16" font-family="Helvetica,sans-Serif" font-style="italic" font-size="32.00" fill="#29235c">DATETIME</text>
<polygon fill="none" stroke="#29235c" stroke-width="2" points="97.51,-511.96 97.51,-813.96 561.51,-813.96 561.51,-511.96 97.51,-511.96"/>
</g>
<!-- CattlePen&#45;&gt;Cattle -->
<!-- CattlePen&#45;&gt;Cattle -->
<g id="edge4" class="edge">
<title>CattlePen:e&#45;&gt;Cattle:w</title>
<path fill="none" stroke="#29235c" stroke-width="3" d="M561.51,-662.96C839.82,-662.96 543.07,-1228.89 807.34,-1242.7"/>
<polygon fill="#29235c" stroke="#29235c" stroke-width="3" points="807.31,-1246.2 817.39,-1242.96 807.49,-1239.21 807.31,-1246.2"/>
<text text-anchor="middle" x="811.17" y="-1214.16" font-family="Helvetica,sans-Serif" font-size="32.00" fill="#29235c">*</text>
<text text-anchor="middle" x="552.62" y="-634.16" font-family="Helvetica,sans-Serif" font-size="32.00" fill="#29235c">1</text>
</g>
<!-- Pen -->
<g id="Pen" class="node">
<title>Pen</title>
<ellipse fill="none" stroke="black" stroke-width="0" cx="1010.39" cy="-408.96" rx="219.41" ry="172.57"/>
<polygon fill="#1d71b8" stroke="transparent" points="857.39,-468.96 857.39,-528.96 1163.39,-528.96 1163.39,-468.96 857.39,-468.96"/>
<polygon fill="none" stroke="#29235c" points="857.39,-468.96 857.39,-528.96 1163.39,-528.96 1163.39,-468.96 857.39,-468.96"/>
<text text-anchor="start" x="919.68" y="-490.16" font-family="Helvetica,sans-Serif" font-weight="bold" font-size="32.00" fill="#ffffff"> &#160;&#160;&#160;&#160;&#160;&#160;Pen &#160;&#160;&#160;&#160;&#160;&#160;</text>
<polygon fill="#e7e2dd" stroke="transparent" points="857.39,-408.96 857.39,-468.96 1163.39,-468.96 1163.39,-408.96 857.39,-408.96"/>
<polygon fill="none" stroke="#29235c" points="857.39,-408.96 857.39,-468.96 1163.39,-468.96 1163.39,-408.96 857.39,-408.96"/>
<text text-anchor="start" x="868.39" y="-430.16" font-family="Helvetica,sans-Serif" font-weight="bold" font-size="32.00" fill="#29235c">id</text>
<text text-anchor="start" x="893.28" y="-430.16" font-family="Helvetica,sans-Serif" font-size="32.00" fill="#29235c"> &#160;&#160;&#160;</text>
<text text-anchor="start" x="1010.18" y="-430.16" font-family="Helvetica,sans-Serif" font-style="italic" font-size="32.00" fill="#29235c">INTEGER</text>
<polygon fill="#e7e2dd" stroke="transparent" points="857.39,-348.96 857.39,-408.96 1163.39,-408.96 1163.39,-348.96 857.39,-348.96"/>
<polygon fill="none" stroke="#29235c" points="857.39,-348.96 857.39,-408.96 1163.39,-408.96 1163.39,-348.96 857.39,-348.96"/>
<text text-anchor="start" x="868.39" y="-369.16" font-family="Helvetica,sans-Serif" font-size="32.00" fill="#29235c">name &#160;&#160;&#160;</text>
<text text-anchor="start" x="995.97" y="-370.16" font-family="Helvetica,sans-Serif" font-style="italic" font-size="32.00" fill="#29235c">VARCHAR</text>
<polygon fill="#e7e2dd" stroke="transparent" points="857.39,-288.96 857.39,-348.96 1163.39,-348.96 1163.39,-288.96 857.39,-288.96"/>
<polygon fill="none" stroke="#29235c" points="857.39,-288.96 857.39,-348.96 1163.39,-348.96 1163.39,-288.96 857.39,-288.96"/>
<text text-anchor="start" x="868.26" y="-309.16" font-family="Helvetica,sans-Serif" font-size="32.00" fill="#29235c">barn_id &#160;&#160;&#160;</text>
<text text-anchor="start" x="1010.28" y="-310.16" font-family="Helvetica,sans-Serif" font-style="italic" font-size="32.00" fill="#29235c">INTEGER</text>
<polygon fill="none" stroke="#29235c" stroke-width="2" points="856.39,-287.96 856.39,-529.96 1164.39,-529.96 1164.39,-287.96 856.39,-287.96"/>
</g>
<!-- CattlePen&#45;&gt;Pen -->
<!-- CattlePen&#45;&gt;Pen -->
<g id="edge6" class="edge">
<title>CattlePen:e&#45;&gt;Pen:w</title>
<path fill="none" stroke="#29235c" stroke-width="3" d="M561.51,-602.96C707.96,-602.96 706.58,-446.56 846.1,-439.23"/>
<polygon fill="#29235c" stroke="#29235c" stroke-width="3" points="846.49,-442.72 856.39,-438.96 846.31,-435.72 846.49,-442.72"/>
<text text-anchor="middle" x="850.17" y="-410.16" font-family="Helvetica,sans-Serif" font-size="32.00" fill="#29235c">*</text>
<text text-anchor="middle" x="552.62" y="-574.16" font-family="Helvetica,sans-Serif" font-size="32.00" fill="#29235c">1</text>
</g>
<!-- Pen&#45;&gt;Barn -->
<!-- Pen&#45;&gt;Barn -->
<g id="edge8" class="edge">
<title>Pen:e&#45;&gt;Barn:w</title>
<path fill="none" stroke="#29235c" stroke-width="3" d="M1164.39,-318.96C1312.53,-318.96 1331.21,-433.63 1473.53,-438.78"/>
<polygon fill="#29235c" stroke="#29235c" stroke-width="3" points="1473.47,-442.28 1483.53,-438.96 1473.6,-435.28 1473.47,-442.28"/>
<text text-anchor="middle" x="1477.31" y="-410.16" font-family="Helvetica,sans-Serif" font-size="32.00" fill="#29235c">*</text>
<text text-anchor="middle" x="1155.5" y="-290.16" font-family="Helvetica,sans-Serif" font-size="32.00" fill="#29235c">1</text>
</g>
<!-- Employee -->
<g id="Employee" class="node">
<title>Employee</title>
<ellipse fill="none" stroke="black" stroke-width="0" cx="1637.53" cy="-813.96" rx="219.41" ry="214.92"/>
<polygon fill="#1d71b8" stroke="transparent" points="1484.53,-903.96 1484.53,-963.96 1790.53,-963.96 1790.53,-903.96 1484.53,-903.96"/>
<polygon fill="none" stroke="#29235c" points="1484.53,-903.96 1484.53,-963.96 1790.53,-963.96 1790.53,-903.96 1484.53,-903.96"/>
<text text-anchor="start" x="1504.16" y="-925.16" font-family="Helvetica,sans-Serif" font-weight="bold" font-size="32.00" fill="#ffffff"> &#160;&#160;&#160;&#160;&#160;&#160;Employee &#160;&#160;&#160;&#160;&#160;&#160;</text>
<polygon fill="#e7e2dd" stroke="transparent" points="1484.53,-843.96 1484.53,-903.96 1790.53,-903.96 1790.53,-843.96 1484.53,-843.96"/>
<polygon fill="none" stroke="#29235c" points="1484.53,-843.96 1484.53,-903.96 1790.53,-903.96 1790.53,-843.96 1484.53,-843.96"/>
<text text-anchor="start" x="1495.53" y="-865.16" font-family="Helvetica,sans-Serif" font-weight="bold" font-size="32.00" fill="#29235c">id</text>
<text text-anchor="start" x="1520.42" y="-865.16" font-family="Helvetica,sans-Serif" font-size="32.00" fill="#29235c"> &#160;&#160;&#160;</text>
<text text-anchor="start" x="1637.32" y="-865.16" font-family="Helvetica,sans-Serif" font-style="italic" font-size="32.00" fill="#29235c">INTEGER</text>
<polygon fill="#e7e2dd" stroke="transparent" points="1484.53,-783.96 1484.53,-843.96 1790.53,-843.96 1790.53,-783.96 1484.53,-783.96"/>
<polygon fill="none" stroke="#29235c" points="1484.53,-783.96 1484.53,-843.96 1790.53,-843.96 1790.53,-783.96 1484.53,-783.96"/>
<text text-anchor="start" x="1495.53" y="-804.16" font-family="Helvetica,sans-Serif" font-size="32.00" fill="#29235c">name &#160;&#160;&#160;</text>
<text text-anchor="start" x="1623.11" y="-805.16" font-family="Helvetica,sans-Serif" font-style="italic" font-size="32.00" fill="#29235c">VARCHAR</text>
<polygon fill="#e7e2dd" stroke="transparent" points="1484.53,-723.96 1484.53,-783.96 1790.53,-783.96 1790.53,-723.96 1484.53,-723.96"/>
<polygon fill="none" stroke="#29235c" points="1484.53,-723.96 1484.53,-783.96 1790.53,-783.96 1790.53,-723.96 1484.53,-723.96"/>
<text text-anchor="start" x="1495.53" y="-744.16" font-family="Helvetica,sans-Serif" font-size="32.00" fill="#29235c">role &#160;&#160;&#160;</text>
<text text-anchor="start" x="1623.11" y="-745.16" font-family="Helvetica,sans-Serif" font-style="italic" font-size="32.00" fill="#29235c">VARCHAR</text>
<polygon fill="#e7e2dd" stroke="transparent" points="1484.53,-663.96 1484.53,-723.96 1790.53,-723.96 1790.53,-663.96 1484.53,-663.96"/>
<polygon fill="none" stroke="#29235c" points="1484.53,-663.96 1484.53,-723.96 1790.53,-723.96 1790.53,-663.96 1484.53,-663.96"/>
<text text-anchor="start" x="1495.42" y="-684.16" font-family="Helvetica,sans-Serif" font-size="32.00" fill="#29235c">farm_id &#160;&#160;&#160;</text>
<text text-anchor="start" x="1637.43" y="-685.16" font-family="Helvetica,sans-Serif" font-style="italic" font-size="32.00" fill="#29235c">INTEGER</text>
<polygon fill="none" stroke="#29235c" stroke-width="2" points="1483.53,-662.96 1483.53,-964.96 1791.53,-964.96 1791.53,-662.96 1483.53,-662.96"/>
</g>
<!-- Employee&#45;&gt;Farm -->
<!-- Employee&#45;&gt;Farm -->
<g id="edge10" class="edge">
<title>Employee:e&#45;&gt;Farm:w</title>
<path fill="none" stroke="#29235c" stroke-width="3" d="M1791.53,-693.96C1903.85,-693.96 1902.88,-573.59 2008.34,-566.31"/>
<polygon fill="#29235c" stroke="#29235c" stroke-width="3" points="2008.65,-569.8 2018.53,-565.96 2008.42,-562.8 2008.65,-569.8"/>
<text text-anchor="middle" x="2012.31" y="-575.56" font-family="Helvetica,sans-Serif" font-size="32.00" fill="#29235c">*</text>
<text text-anchor="middle" x="1782.64" y="-665.16" font-family="Helvetica,sans-Serif" font-size="32.00" fill="#29235c">1</text>
</g>
<!-- FeedingSchedule -->
<g id="FeedingSchedule" class="node">
<title>FeedingSchedule</title>
<ellipse fill="none" stroke="black" stroke-width="0" cx="329.51" cy="-214.96" rx="302.78" ry="214.92"/>
<polygon fill="#1d71b8" stroke="transparent" points="117.51,-304.96 117.51,-364.96 541.51,-364.96 541.51,-304.96 117.51,-304.96"/>
<polygon fill="none" stroke="#29235c" points="117.51,-304.96 117.51,-364.96 541.51,-364.96 541.51,-304.96 117.51,-304.96"/>
<text text-anchor="start" x="142.77" y="-326.16" font-family="Helvetica,sans-Serif" font-weight="bold" font-size="32.00" fill="#ffffff"> &#160;&#160;&#160;&#160;&#160;&#160;FeedingSchedule &#160;&#160;&#160;&#160;&#160;&#160;</text>
<polygon fill="#e7e2dd" stroke="transparent" points="117.51,-244.96 117.51,-304.96 541.51,-304.96 541.51,-244.96 117.51,-244.96"/>
<polygon fill="none" stroke="#29235c" points="117.51,-244.96 117.51,-304.96 541.51,-304.96 541.51,-244.96 117.51,-244.96"/>
<text text-anchor="start" x="128.51" y="-266.16" font-family="Helvetica,sans-Serif" font-weight="bold" font-size="32.00" fill="#29235c">id</text>
<text text-anchor="start" x="153.4" y="-266.16" font-family="Helvetica,sans-Serif" font-size="32.00" fill="#29235c"> &#160;&#160;&#160;</text>
<text text-anchor="start" x="388.29" y="-266.16" font-family="Helvetica,sans-Serif" font-style="italic" font-size="32.00" fill="#29235c">INTEGER</text>
<polygon fill="#e7e2dd" stroke="transparent" points="117.51,-184.96 117.51,-244.96 541.51,-244.96 541.51,-184.96 117.51,-184.96"/>
<polygon fill="none" stroke="#29235c" points="117.51,-184.96 117.51,-244.96 541.51,-244.96 541.51,-184.96 117.51,-184.96"/>
<text text-anchor="start" x="128.51" y="-205.16" font-family="Helvetica,sans-Serif" font-size="32.00" fill="#29235c">pen_id &#160;&#160;&#160;</text>
<text text-anchor="start" x="388.29" y="-206.16" font-family="Helvetica,sans-Serif" font-style="italic" font-size="32.00" fill="#29235c">INTEGER</text>
<polygon fill="#e7e2dd" stroke="transparent" points="117.51,-124.96 117.51,-184.96 541.51,-184.96 541.51,-124.96 117.51,-124.96"/>
<polygon fill="none" stroke="#29235c" points="117.51,-124.96 117.51,-184.96 541.51,-184.96 541.51,-124.96 117.51,-124.96"/>
<text text-anchor="start" x="128.51" y="-145.16" font-family="Helvetica,sans-Serif" font-size="32.00" fill="#29235c">feed_type &#160;&#160;&#160;</text>
<text text-anchor="start" x="374.09" y="-146.16" font-family="Helvetica,sans-Serif" font-style="italic" font-size="32.00" fill="#29235c">VARCHAR</text>
<polygon fill="#e7e2dd" stroke="transparent" points="117.51,-64.96 117.51,-124.96 541.51,-124.96 541.51,-64.96 117.51,-64.96"/>
<polygon fill="none" stroke="#29235c" points="117.51,-64.96 117.51,-124.96 541.51,-124.96 541.51,-64.96 117.51,-64.96"/>
<text text-anchor="start" x="128.09" y="-85.16" font-family="Helvetica,sans-Serif" font-size="32.00" fill="#29235c">schedule_time &#160;&#160;&#160;</text>
<text text-anchor="start" x="369.13" y="-86.16" font-family="Helvetica,sans-Serif" font-style="italic" font-size="32.00" fill="#29235c">DATETIME</text>
<polygon fill="none" stroke="#29235c" stroke-width="2" points="116.51,-63.96 116.51,-365.96 542.51,-365.96 542.51,-63.96 116.51,-63.96"/>
</g>
<!-- FeedingSchedule&#45;&gt;Pen -->
<!-- FeedingSchedule&#45;&gt;Pen -->
<g id="edge12" class="edge">
<title>FeedingSchedule:e&#45;&gt;Pen:w</title>
<path fill="none" stroke="#29235c" stroke-width="3" d="M542.51,-214.96C710.38,-214.96 686.11,-429.87 846.1,-438.68"/>
<polygon fill="#29235c" stroke="#29235c" stroke-width="3" points="846.3,-442.19 856.39,-438.96 846.49,-435.19 846.3,-442.19"/>
<text text-anchor="middle" x="850.17" y="-448.56" font-family="Helvetica,sans-Serif" font-size="32.00" fill="#29235c">*</text>
<text text-anchor="middle" x="533.62" y="-186.16" font-family="Helvetica,sans-Serif" font-size="32.00" fill="#29235c">1</text>
</g>
<!-- HealthCheck -->
<g id="HealthCheck" class="node">
<title>HealthCheck</title>
<ellipse fill="none" stroke="black" stroke-width="0" cx="329.51" cy="-1152.96" rx="287.59" ry="257.27"/>
<polygon fill="#1d71b8" stroke="transparent" points="128.51,-1272.96 128.51,-1332.96 531.51,-1332.96 531.51,-1272.96 128.51,-1272.96"/>
<polygon fill="none" stroke="#29235c" points="128.51,-1272.96 128.51,-1332.96 531.51,-1332.96 531.51,-1272.96 128.51,-1272.96"/>
<text text-anchor="start" x="176.19" y="-1294.16" font-family="Helvetica,sans-Serif" font-weight="bold" font-size="32.00" fill="#ffffff"> &#160;&#160;&#160;&#160;&#160;&#160;HealthCheck &#160;&#160;&#160;&#160;&#160;&#160;</text>
<polygon fill="#e7e2dd" stroke="transparent" points="128.51,-1212.96 128.51,-1272.96 531.51,-1272.96 531.51,-1212.96 128.51,-1212.96"/>
<polygon fill="none" stroke="#29235c" points="128.51,-1212.96 128.51,-1272.96 531.51,-1272.96 531.51,-1212.96 128.51,-1212.96"/>
<text text-anchor="start" x="139.51" y="-1234.16" font-family="Helvetica,sans-Serif" font-weight="bold" font-size="32.00" fill="#29235c">id</text>
<text text-anchor="start" x="164.4" y="-1234.16" font-family="Helvetica,sans-Serif" font-size="32.00" fill="#29235c"> &#160;&#160;&#160;</text>
<text text-anchor="start" x="378.29" y="-1234.16" font-family="Helvetica,sans-Serif" font-style="italic" font-size="32.00" fill="#29235c">INTEGER</text>
<polygon fill="#e7e2dd" stroke="transparent" points="128.51,-1152.96 128.51,-1212.96 531.51,-1212.96 531.51,-1152.96 128.51,-1152.96"/>
<polygon fill="none" stroke="#29235c" points="128.51,-1152.96 128.51,-1212.96 531.51,-1212.96 531.51,-1152.96 128.51,-1152.96"/>
<text text-anchor="start" x="139.51" y="-1173.16" font-family="Helvetica,sans-Serif" font-size="32.00" fill="#29235c">cattle_id &#160;&#160;&#160;</text>
<text text-anchor="start" x="378.29" y="-1174.16" font-family="Helvetica,sans-Serif" font-style="italic" font-size="32.00" fill="#29235c">INTEGER</text>
<polygon fill="#e7e2dd" stroke="transparent" points="128.51,-1092.96 128.51,-1152.96 531.51,-1152.96 531.51,-1092.96 128.51,-1092.96"/>
<polygon fill="none" stroke="#29235c" points="128.51,-1092.96 128.51,-1152.96 531.51,-1152.96 531.51,-1092.96 128.51,-1092.96"/>
<text text-anchor="start" x="139.51" y="-1113.16" font-family="Helvetica,sans-Serif" font-size="32.00" fill="#29235c">check_date &#160;&#160;&#160;</text>
<text text-anchor="start" x="358.75" y="-1114.16" font-family="Helvetica,sans-Serif" font-style="italic" font-size="32.00" fill="#29235c">DATETIME</text>
<polygon fill="#e7e2dd" stroke="transparent" points="128.51,-1032.96 128.51,-1092.96 531.51,-1092.96 531.51,-1032.96 128.51,-1032.96"/>
<polygon fill="none" stroke="#29235c" points="128.51,-1032.96 128.51,-1092.96 531.51,-1092.96 531.51,-1032.96 128.51,-1032.96"/>
<text text-anchor="start" x="139.08" y="-1053.16" font-family="Helvetica,sans-Serif" font-size="32.00" fill="#29235c">health_status &#160;&#160;&#160;</text>
<text text-anchor="start" x="364.3" y="-1054.16" font-family="Helvetica,sans-Serif" font-style="italic" font-size="32.00" fill="#29235c">VARCHAR</text>
<polygon fill="#e7e2dd" stroke="transparent" points="128.51,-972.96 128.51,-1032.96 531.51,-1032.96 531.51,-972.96 128.51,-972.96"/>
<polygon fill="none" stroke="#29235c" points="128.51,-972.96 128.51,-1032.96 531.51,-1032.96 531.51,-972.96 128.51,-972.96"/>
<text text-anchor="start" x="139.51" y="-993.16" font-family="Helvetica,sans-Serif" font-size="32.00" fill="#29235c">notes &#160;&#160;&#160;</text>
<text text-anchor="start" x="364.09" y="-994.16" font-family="Helvetica,sans-Serif" font-style="italic" font-size="32.00" fill="#29235c">VARCHAR</text>
<polygon fill="none" stroke="#29235c" stroke-width="2" points="127.01,-971.96 127.01,-1333.96 532.01,-1333.96 532.01,-971.96 127.01,-971.96"/>
</g>
<!-- HealthCheck&#45;&gt;Cattle -->
<!-- HealthCheck&#45;&gt;Cattle -->
<g id="edge14" class="edge">
<title>HealthCheck:e&#45;&gt;Cattle:w</title>
<path fill="none" stroke="#29235c" stroke-width="3" d="M532.51,-1182.96C658.49,-1182.96 686.55,-1239.84 807.37,-1242.84"/>
<polygon fill="#29235c" stroke="#29235c" stroke-width="3" points="807.35,-1246.34 817.39,-1242.96 807.44,-1239.34 807.35,-1246.34"/>
<text text-anchor="middle" x="811.17" y="-1252.56" font-family="Helvetica,sans-Serif" font-size="32.00" fill="#29235c">*</text>
<text text-anchor="middle" x="523.62" y="-1154.16" font-family="Helvetica,sans-Serif" font-size="32.00" fill="#29235c">1</text>
</g>
<!-- Supplier -->
<g id="Supplier" class="node">
<title>Supplier</title>
<ellipse fill="none" stroke="black" stroke-width="0" cx="1637.53" cy="-2205.96" rx="275.54" ry="172.57"/>
<polygon fill="#1d71b8" stroke="transparent" points="1444.53,-2265.96 1444.53,-2325.96 1830.53,-2325.96 1830.53,-2265.96 1444.53,-2265.96"/>
<polygon fill="none" stroke="#29235c" points="1444.53,-2265.96 1444.53,-2325.96 1830.53,-2325.96 1830.53,-2265.96 1444.53,-2265.96"/>
<text text-anchor="start" x="1516.61" y="-2287.16" font-family="Helvetica,sans-Serif" font-weight="bold" font-size="32.00" fill="#ffffff"> &#160;&#160;&#160;&#160;&#160;&#160;Supplier &#160;&#160;&#160;&#160;&#160;&#160;</text>
<polygon fill="#e7e2dd" stroke="transparent" points="1444.53,-2205.96 1444.53,-2265.96 1830.53,-2265.96 1830.53,-2205.96 1444.53,-2205.96"/>
<polygon fill="none" stroke="#29235c" points="1444.53,-2205.96 1444.53,-2265.96 1830.53,-2265.96 1830.53,-2205.96 1444.53,-2205.96"/>
<text text-anchor="start" x="1455.53" y="-2227.16" font-family="Helvetica,sans-Serif" font-weight="bold" font-size="32.00" fill="#29235c">id</text>
<text text-anchor="start" x="1480.42" y="-2227.16" font-family="Helvetica,sans-Serif" font-size="32.00" fill="#29235c"> &#160;&#160;&#160;</text>
<text text-anchor="start" x="1677.32" y="-2227.16" font-family="Helvetica,sans-Serif" font-style="italic" font-size="32.00" fill="#29235c">INTEGER</text>
<polygon fill="#e7e2dd" stroke="transparent" points="1444.53,-2145.96 1444.53,-2205.96 1830.53,-2205.96 1830.53,-2145.96 1444.53,-2145.96"/>
<polygon fill="none" stroke="#29235c" points="1444.53,-2145.96 1444.53,-2205.96 1830.53,-2205.96 1830.53,-2145.96 1444.53,-2145.96"/>
<text text-anchor="start" x="1455.53" y="-2166.16" font-family="Helvetica,sans-Serif" font-size="32.00" fill="#29235c">name &#160;&#160;&#160;</text>
<text text-anchor="start" x="1663.11" y="-2167.16" font-family="Helvetica,sans-Serif" font-style="italic" font-size="32.00" fill="#29235c">VARCHAR</text>
<polygon fill="#e7e2dd" stroke="transparent" points="1444.53,-2085.96 1444.53,-2145.96 1830.53,-2145.96 1830.53,-2085.96 1444.53,-2085.96"/>
<polygon fill="none" stroke="#29235c" points="1444.53,-2085.96 1444.53,-2145.96 1830.53,-2145.96 1830.53,-2085.96 1444.53,-2085.96"/>
<text text-anchor="start" x="1455.49" y="-2106.16" font-family="Helvetica,sans-Serif" font-size="32.00" fill="#29235c">contact_info &#160;&#160;&#160;</text>
<text text-anchor="start" x="1663.32" y="-2107.16" font-family="Helvetica,sans-Serif" font-style="italic" font-size="32.00" fill="#29235c">VARCHAR</text>
<polygon fill="none" stroke="#29235c" stroke-width="2" points="1443.53,-2084.96 1443.53,-2326.96 1831.53,-2326.96 1831.53,-2084.96 1443.53,-2084.96"/>
</g>
<!-- SupplyItem -->
<g id="SupplyItem" class="node">
<title>SupplyItem</title>
<ellipse fill="none" stroke="black" stroke-width="0" cx="329.51" cy="-2175.96" rx="265.33" ry="214.92"/>
<polygon fill="#1d71b8" stroke="transparent" points="144.51,-2265.96 144.51,-2325.96 515.51,-2325.96 515.51,-2265.96 144.51,-2265.96"/>
<polygon fill="none" stroke="#29235c" points="144.51,-2265.96 144.51,-2325.96 515.51,-2325.96 515.51,-2265.96 144.51,-2265.96"/>
<text text-anchor="start" x="187.74" y="-2287.16" font-family="Helvetica,sans-Serif" font-weight="bold" font-size="32.00" fill="#ffffff"> &#160;&#160;&#160;&#160;&#160;&#160;SupplyItem &#160;&#160;&#160;&#160;&#160;&#160;</text>
<polygon fill="#e7e2dd" stroke="transparent" points="144.51,-2205.96 144.51,-2265.96 515.51,-2265.96 515.51,-2205.96 144.51,-2205.96"/>
<polygon fill="none" stroke="#29235c" points="144.51,-2205.96 144.51,-2265.96 515.51,-2265.96 515.51,-2205.96 144.51,-2205.96"/>
<text text-anchor="start" x="155.51" y="-2227.16" font-family="Helvetica,sans-Serif" font-weight="bold" font-size="32.00" fill="#29235c">id</text>
<text text-anchor="start" x="180.4" y="-2227.16" font-family="Helvetica,sans-Serif" font-size="32.00" fill="#29235c"> &#160;&#160;&#160;</text>
<text text-anchor="start" x="362.29" y="-2227.16" font-family="Helvetica,sans-Serif" font-style="italic" font-size="32.00" fill="#29235c">INTEGER</text>
<polygon fill="#e7e2dd" stroke="transparent" points="144.51,-2145.96 144.51,-2205.96 515.51,-2205.96 515.51,-2145.96 144.51,-2145.96"/>
<polygon fill="none" stroke="#29235c" points="144.51,-2145.96 144.51,-2205.96 515.51,-2205.96 515.51,-2145.96 144.51,-2145.96"/>
<text text-anchor="start" x="155.51" y="-2166.16" font-family="Helvetica,sans-Serif" font-size="32.00" fill="#29235c">order_id &#160;&#160;&#160;</text>
<text text-anchor="start" x="362.29" y="-2167.16" font-family="Helvetica,sans-Serif" font-style="italic" font-size="32.00" fill="#29235c">INTEGER</text>
<polygon fill="#e7e2dd" stroke="transparent" points="144.51,-2085.96 144.51,-2145.96 515.51,-2145.96 515.51,-2085.96 144.51,-2085.96"/>
<polygon fill="none" stroke="#29235c" points="144.51,-2085.96 144.51,-2145.96 515.51,-2145.96 515.51,-2085.96 144.51,-2085.96"/>
<text text-anchor="start" x="155.1" y="-2106.16" font-family="Helvetica,sans-Serif" font-size="32.00" fill="#29235c">item_name &#160;&#160;&#160;</text>
<text text-anchor="start" x="348.3" y="-2107.16" font-family="Helvetica,sans-Serif" font-style="italic" font-size="32.00" fill="#29235c">VARCHAR</text>
<polygon fill="#e7e2dd" stroke="transparent" points="144.51,-2025.96 144.51,-2085.96 515.51,-2085.96 515.51,-2025.96 144.51,-2025.96"/>
<polygon fill="none" stroke="#29235c" points="144.51,-2025.96 144.51,-2085.96 515.51,-2085.96 515.51,-2025.96 144.51,-2025.96"/>
<text text-anchor="start" x="155.51" y="-2046.16" font-family="Helvetica,sans-Serif" font-size="32.00" fill="#29235c">quantity &#160;&#160;&#160;</text>
<text text-anchor="start" x="401.39" y="-2047.16" font-family="Helvetica,sans-Serif" font-style="italic" font-size="32.00" fill="#29235c">FLOAT</text>
<polygon fill="none" stroke="#29235c" stroke-width="2" points="143.01,-2024.96 143.01,-2326.96 516.01,-2326.96 516.01,-2024.96 143.01,-2024.96"/>
</g>
<!-- SupplyOrder -->
<g id="SupplyOrder" class="node">
<title>SupplyOrder</title>
<ellipse fill="none" stroke="black" stroke-width="0" cx="1010.39" cy="-2175.96" rx="291.16" ry="214.92"/>
<polygon fill="#1d71b8" stroke="transparent" points="806.39,-2265.96 806.39,-2325.96 1214.39,-2325.96 1214.39,-2265.96 806.39,-2265.96"/>
<polygon fill="none" stroke="#29235c" points="806.39,-2265.96 806.39,-2325.96 1214.39,-2325.96 1214.39,-2265.96 806.39,-2265.96"/>
<text text-anchor="start" x="858.35" y="-2287.16" font-family="Helvetica,sans-Serif" font-weight="bold" font-size="32.00" fill="#ffffff"> &#160;&#160;&#160;&#160;&#160;&#160;SupplyOrder &#160;&#160;&#160;&#160;&#160;&#160;</text>
<polygon fill="#e7e2dd" stroke="transparent" points="806.39,-2205.96 806.39,-2265.96 1214.39,-2265.96 1214.39,-2205.96 806.39,-2205.96"/>
<polygon fill="none" stroke="#29235c" points="806.39,-2205.96 806.39,-2265.96 1214.39,-2265.96 1214.39,-2205.96 806.39,-2205.96"/>
<text text-anchor="start" x="817.39" y="-2227.16" font-family="Helvetica,sans-Serif" font-weight="bold" font-size="32.00" fill="#29235c">id</text>
<text text-anchor="start" x="842.28" y="-2227.16" font-family="Helvetica,sans-Serif" font-size="32.00" fill="#29235c"> &#160;&#160;&#160;</text>
<text text-anchor="start" x="1061.18" y="-2227.16" font-family="Helvetica,sans-Serif" font-style="italic" font-size="32.00" fill="#29235c">INTEGER</text>
<polygon fill="#e7e2dd" stroke="transparent" points="806.39,-2145.96 806.39,-2205.96 1214.39,-2205.96 1214.39,-2145.96 806.39,-2145.96"/>
<polygon fill="none" stroke="#29235c" points="806.39,-2145.96 806.39,-2205.96 1214.39,-2205.96 1214.39,-2145.96 806.39,-2145.96"/>
<text text-anchor="start" x="817.39" y="-2166.16" font-family="Helvetica,sans-Serif" font-size="32.00" fill="#29235c">supplier_id &#160;&#160;&#160;</text>
<text text-anchor="start" x="1061.18" y="-2167.16" font-family="Helvetica,sans-Serif" font-style="italic" font-size="32.00" fill="#29235c">INTEGER</text>
<polygon fill="#e7e2dd" stroke="transparent" points="806.39,-2085.96 806.39,-2145.96 1214.39,-2145.96 1214.39,-2085.96 806.39,-2085.96"/>
<polygon fill="none" stroke="#29235c" points="806.39,-2085.96 806.39,-2145.96 1214.39,-2145.96 1214.39,-2085.96 806.39,-2085.96"/>
<text text-anchor="start" x="817.39" y="-2106.16" font-family="Helvetica,sans-Serif" font-size="32.00" fill="#29235c">order_date &#160;&#160;&#160;</text>
<text text-anchor="start" x="1041.63" y="-2107.16" font-family="Helvetica,sans-Serif" font-style="italic" font-size="32.00" fill="#29235c">DATETIME</text>
<polygon fill="#e7e2dd" stroke="transparent" points="806.39,-2025.96 806.39,-2085.96 1214.39,-2085.96 1214.39,-2025.96 806.39,-2025.96"/>
<polygon fill="none" stroke="#29235c" points="806.39,-2025.96 806.39,-2085.96 1214.39,-2085.96 1214.39,-2025.96 806.39,-2025.96"/>
<text text-anchor="start" x="816.97" y="-2046.16" font-family="Helvetica,sans-Serif" font-size="32.00" fill="#29235c">delivery_date &#160;&#160;&#160;</text>
<text text-anchor="start" x="1042.01" y="-2047.16" font-family="Helvetica,sans-Serif" font-style="italic" font-size="32.00" fill="#29235c">DATETIME</text>
<polygon fill="none" stroke="#29235c" stroke-width="2" points="805.39,-2024.96 805.39,-2326.96 1215.39,-2326.96 1215.39,-2024.96 805.39,-2024.96"/>
</g>
<!-- SupplyItem&#45;&gt;SupplyOrder -->
<!-- SupplyItem&#45;&gt;SupplyOrder -->
<g id="edge16" class="edge">
<title>SupplyItem:e&#45;&gt;SupplyOrder:w</title>
<path fill="none" stroke="#29235c" stroke-width="3" d="M516.51,-2175.96C644.19,-2175.96 672.79,-2232.84 795.23,-2235.84"/>
<polygon fill="#29235c" stroke="#29235c" stroke-width="3" points="795.35,-2239.34 805.39,-2235.96 795.44,-2232.34 795.35,-2239.34"/>
<text text-anchor="middle" x="799.17" y="-2245.56" font-family="Helvetica,sans-Serif" font-size="32.00" fill="#29235c">*</text>
<text text-anchor="middle" x="507.62" y="-2185.56" font-family="Helvetica,sans-Serif" font-size="32.00" fill="#29235c">1</text>
</g>
<!-- SupplyOrder&#45;&gt;Supplier -->
<!-- SupplyOrder&#45;&gt;Supplier -->
<g id="edge18" class="edge">
<title>SupplyOrder:e&#45;&gt;Supplier:w</title>
<path fill="none" stroke="#29235c" stroke-width="3" d="M1215.39,-2175.96C1316.76,-2175.96 1337.37,-2232.04 1433.37,-2235.77"/>
<polygon fill="#29235c" stroke="#29235c" stroke-width="3" points="1433.47,-2239.27 1443.53,-2235.96 1433.6,-2232.27 1433.47,-2239.27"/>
<text text-anchor="middle" x="1437.31" y="-2245.56" font-family="Helvetica,sans-Serif" font-size="32.00" fill="#29235c">*</text>
<text text-anchor="middle" x="1206.5" y="-2185.56" font-family="Helvetica,sans-Serif" font-size="32.00" fill="#29235c">1</text>
</g>
<!-- VetVisit -->
<g id="VetVisit" class="node">
<title>VetVisit</title>
<ellipse fill="none" stroke="black" stroke-width="0" cx="329.51" cy="-1685.96" rx="272.89" ry="257.27"/>
<polygon fill="#1d71b8" stroke="transparent" points="138.51,-1805.96 138.51,-1865.96 520.51,-1865.96 520.51,-1805.96 138.51,-1805.96"/>
<polygon fill="none" stroke="#29235c" points="138.51,-1805.96 138.51,-1865.96 520.51,-1865.96 520.51,-1805.96 138.51,-1805.96"/>
<text text-anchor="start" x="213.03" y="-1827.16" font-family="Helvetica,sans-Serif" font-weight="bold" font-size="32.00" fill="#ffffff"> &#160;&#160;&#160;&#160;&#160;&#160;VetVisit &#160;&#160;&#160;&#160;&#160;&#160;</text>
<polygon fill="#e7e2dd" stroke="transparent" points="138.51,-1745.96 138.51,-1805.96 520.51,-1805.96 520.51,-1745.96 138.51,-1745.96"/>
<polygon fill="none" stroke="#29235c" points="138.51,-1745.96 138.51,-1805.96 520.51,-1805.96 520.51,-1745.96 138.51,-1745.96"/>
<text text-anchor="start" x="149.51" y="-1767.16" font-family="Helvetica,sans-Serif" font-weight="bold" font-size="32.00" fill="#29235c">id</text>
<text text-anchor="start" x="174.4" y="-1767.16" font-family="Helvetica,sans-Serif" font-size="32.00" fill="#29235c"> &#160;&#160;&#160;</text>
<text text-anchor="start" x="367.29" y="-1767.16" font-family="Helvetica,sans-Serif" font-style="italic" font-size="32.00" fill="#29235c">INTEGER</text>
<polygon fill="#e7e2dd" stroke="transparent" points="138.51,-1685.96 138.51,-1745.96 520.51,-1745.96 520.51,-1685.96 138.51,-1685.96"/>
<polygon fill="none" stroke="#29235c" points="138.51,-1685.96 138.51,-1745.96 520.51,-1745.96 520.51,-1685.96 138.51,-1685.96"/>
<text text-anchor="start" x="149.16" y="-1706.16" font-family="Helvetica,sans-Serif" font-size="32.00" fill="#29235c">veterinary_id &#160;&#160;&#160;</text>
<text text-anchor="start" x="367.4" y="-1707.16" font-family="Helvetica,sans-Serif" font-style="italic" font-size="32.00" fill="#29235c">INTEGER</text>
<polygon fill="#e7e2dd" stroke="transparent" points="138.51,-1625.96 138.51,-1685.96 520.51,-1685.96 520.51,-1625.96 138.51,-1625.96"/>
<polygon fill="none" stroke="#29235c" points="138.51,-1625.96 138.51,-1685.96 520.51,-1685.96 520.51,-1625.96 138.51,-1625.96"/>
<text text-anchor="start" x="149.51" y="-1646.16" font-family="Helvetica,sans-Serif" font-size="32.00" fill="#29235c">cattle_id &#160;&#160;&#160;</text>
<text text-anchor="start" x="367.29" y="-1647.16" font-family="Helvetica,sans-Serif" font-style="italic" font-size="32.00" fill="#29235c">INTEGER</text>
<polygon fill="#e7e2dd" stroke="transparent" points="138.51,-1565.96 138.51,-1625.96 520.51,-1625.96 520.51,-1565.96 138.51,-1565.96"/>
<polygon fill="none" stroke="#29235c" points="138.51,-1565.96 138.51,-1625.96 520.51,-1625.96 520.51,-1565.96 138.51,-1565.96"/>
<text text-anchor="start" x="149.51" y="-1586.16" font-family="Helvetica,sans-Serif" font-size="32.00" fill="#29235c">visit_date &#160;&#160;&#160;</text>
<text text-anchor="start" x="347.75" y="-1587.16" font-family="Helvetica,sans-Serif" font-style="italic" font-size="32.00" fill="#29235c">DATETIME</text>
<polygon fill="#e7e2dd" stroke="transparent" points="138.51,-1505.96 138.51,-1565.96 520.51,-1565.96 520.51,-1505.96 138.51,-1505.96"/>
<polygon fill="none" stroke="#29235c" points="138.51,-1505.96 138.51,-1565.96 520.51,-1565.96 520.51,-1505.96 138.51,-1505.96"/>
<text text-anchor="start" x="149.51" y="-1526.16" font-family="Helvetica,sans-Serif" font-size="32.00" fill="#29235c">treatment &#160;&#160;&#160;</text>
<text text-anchor="start" x="353.09" y="-1527.16" font-family="Helvetica,sans-Serif" font-style="italic" font-size="32.00" fill="#29235c">VARCHAR</text>
<polygon fill="none" stroke="#29235c" stroke-width="2" points="137.51,-1504.96 137.51,-1866.96 521.51,-1866.96 521.51,-1504.96 137.51,-1504.96"/>
</g>
<!-- VetVisit&#45;&gt;Cattle -->
<!-- VetVisit&#45;&gt;Cattle -->
<g id="edge20" class="edge">
<title>VetVisit:e&#45;&gt;Cattle:w</title>
<path fill="none" stroke="#29235c" stroke-width="3" d="M521.51,-1655.96C743.78,-1655.96 596.37,-1255.77 807.09,-1243.26"/>
<polygon fill="#29235c" stroke="#29235c" stroke-width="3" points="807.5,-1246.75 817.39,-1242.96 807.3,-1239.75 807.5,-1246.75"/>
<text text-anchor="middle" x="823.62" y="-1214.16" font-family="Helvetica,sans-Serif" font-size="32.00" fill="#29235c">*</text>
<text text-anchor="middle" x="512.62" y="-1627.16" font-family="Helvetica,sans-Serif" font-size="32.00" fill="#29235c">1</text>
</g>
<!-- Veterinary -->
<g id="Veterinary" class="node">
<title>Veterinary</title>
<ellipse fill="none" stroke="black" stroke-width="0" cx="1010.39" cy="-1745.96" rx="315.24" ry="172.57"/>
<polygon fill="#1d71b8" stroke="transparent" points="789.39,-1805.96 789.39,-1865.96 1231.39,-1865.96 1231.39,-1805.96 789.39,-1805.96"/>
<polygon fill="none" stroke="#29235c" points="789.39,-1805.96 789.39,-1865.96 1231.39,-1865.96 1231.39,-1805.96 789.39,-1805.96"/>
<text text-anchor="start" x="875.25" y="-1827.16" font-family="Helvetica,sans-Serif" font-weight="bold" font-size="32.00" fill="#ffffff"> &#160;&#160;&#160;&#160;&#160;&#160;Veterinary &#160;&#160;&#160;&#160;&#160;&#160;</text>
<polygon fill="#e7e2dd" stroke="transparent" points="789.39,-1745.96 789.39,-1805.96 1231.39,-1805.96 1231.39,-1745.96 789.39,-1745.96"/>
<polygon fill="none" stroke="#29235c" points="789.39,-1745.96 789.39,-1805.96 1231.39,-1805.96 1231.39,-1745.96 789.39,-1745.96"/>
<text text-anchor="start" x="800.39" y="-1767.16" font-family="Helvetica,sans-Serif" font-weight="bold" font-size="32.00" fill="#29235c">id</text>
<text text-anchor="start" x="825.28" y="-1767.16" font-family="Helvetica,sans-Serif" font-size="32.00" fill="#29235c"> &#160;&#160;&#160;</text>
<text text-anchor="start" x="1078.18" y="-1767.16" font-family="Helvetica,sans-Serif" font-style="italic" font-size="32.00" fill="#29235c">INTEGER</text>
<polygon fill="#e7e2dd" stroke="transparent" points="789.39,-1685.96 789.39,-1745.96 1231.39,-1745.96 1231.39,-1685.96 789.39,-1685.96"/>
<polygon fill="none" stroke="#29235c" points="789.39,-1685.96 789.39,-1745.96 1231.39,-1745.96 1231.39,-1685.96 789.39,-1685.96"/>
<text text-anchor="start" x="800.39" y="-1706.16" font-family="Helvetica,sans-Serif" font-size="32.00" fill="#29235c">name &#160;&#160;&#160;</text>
<text text-anchor="start" x="1063.97" y="-1707.16" font-family="Helvetica,sans-Serif" font-style="italic" font-size="32.00" fill="#29235c">VARCHAR</text>
<polygon fill="#e7e2dd" stroke="transparent" points="789.39,-1625.96 789.39,-1685.96 1231.39,-1685.96 1231.39,-1625.96 789.39,-1625.96"/>
<polygon fill="none" stroke="#29235c" points="789.39,-1625.96 789.39,-1685.96 1231.39,-1685.96 1231.39,-1625.96 789.39,-1625.96"/>
<text text-anchor="start" x="799.91" y="-1646.16" font-family="Helvetica,sans-Serif" font-size="32.00" fill="#29235c">contact_number &#160;&#160;&#160;</text>
<text text-anchor="start" x="1064.18" y="-1647.16" font-family="Helvetica,sans-Serif" font-style="italic" font-size="32.00" fill="#29235c">VARCHAR</text>
<polygon fill="none" stroke="#29235c" stroke-width="2" points="788.39,-1624.96 788.39,-1866.96 1232.39,-1866.96 1232.39,-1624.96 788.39,-1624.96"/>
</g>
<!-- VetVisit&#45;&gt;Veterinary -->
<!-- VetVisit&#45;&gt;Veterinary -->
<g id="edge22" class="edge">
<title>VetVisit:e&#45;&gt;Veterinary:w</title>
<path fill="none" stroke="#29235c" stroke-width="3" d="M521.51,-1715.96C639.64,-1715.96 665.4,-1772.61 778.3,-1775.82"/>
<polygon fill="#29235c" stroke="#29235c" stroke-width="3" points="778.35,-1779.32 788.39,-1775.96 778.44,-1772.32 778.35,-1779.32"/>
<text text-anchor="middle" x="782.17" y="-1747.16" font-family="Helvetica,sans-Serif" font-size="32.00" fill="#29235c">*</text>
<text text-anchor="middle" x="512.62" y="-1687.16" font-family="Helvetica,sans-Serif" font-size="32.00" fill="#29235c">1</text>
</g>
</g>
</svg>
